<?xml version="1.0" encoding="UTF-8" standalone="no"?>
<!-- Created with Inkscape (http://www.inkscape.org/) -->

<svg
   xmlns:dc="http://purl.org/dc/elements/1.1/"
   xmlns:cc="http://creativecommons.org/ns#"
   xmlns:rdf="http://www.w3.org/1999/02/22-rdf-syntax-ns#"
   xmlns:svg="http://www.w3.org/2000/svg"
   xmlns="http://www.w3.org/2000/svg"
   xmlns:sodipodi="http://sodipodi.sourceforge.net/DTD/sodipodi-0.dtd"
   xmlns:inkscape="http://www.inkscape.org/namespaces/inkscape"
   width="295.26505mm"
   height="80.182793mm"
   viewBox="0 0 1046.2147 284.11225"
   id="svg5571"
   version="1.1"
   inkscape:version="0.92.2 (5c3e80d, 2017-08-06)"
   sodipodi:docname="warp10.svg"
   inkscape:export-filename="/home/xavier/Images/warp10.png"
   inkscape:export-xdpi="96"
   inkscape:export-ydpi="96">
  <defs
     id="defs5573" />
  <sodipodi:namedview
     id="base"
     pagecolor="#ffffff"
     bordercolor="#666666"
     borderopacity="1.0"
     inkscape:pageopacity="0.0"
     inkscape:pageshadow="2"
     inkscape:zoom="0.49497474"
     inkscape:cx="1151.9467"
     inkscape:cy="237.88205"
     inkscape:document-units="px"
     inkscape:current-layer="layer1"
     showgrid="false"
     fit-margin-top="10"
     fit-margin-left="10"
     fit-margin-right="10"
     fit-margin-bottom="10"
     inkscape:window-width="1871"
     inkscape:window-height="1046"
     inkscape:window-x="49"
     inkscape:window-y="0"
     inkscape:window-maximized="1" />
  <metadata
     id="metadata5576">
    <rdf:RDF>
      <cc:Work
         rdf:about="">
        <dc:format>image/svg+xml</dc:format>
        <dc:type
           rdf:resource="http://purl.org/dc/dcmitype/StillImage" />
        <dc:title />
      </cc:Work>
    </rdf:RDF>
  </metadata>
  <g
     inkscape:label="Layer 1"
     inkscape:groupmode="layer"
     id="layer1"
     transform="translate(747.04226,-227.57204)">
    <g
       id="g4269"
       transform="matrix(5.5502144,0,0,5.5502144,-3497.3111,-4899.471)"
       style="fill:#000000;fill-opacity:1">
      <path
         id="path4246"
         transform="translate(0,308.26772)"
         d="m 549.37695,630 2.26953,21.0918 3.38672,0 6.61524,-11.75977 1.4375,11.75977 3.41992,0 4.26758,-7.5918 0.0176,0.0176 7.5957,-13.49219 -5.82617,0 -2.4668,4.86328 -3.52539,6.23242 L 565.57812,630 l -3.22656,0 -6.71094,11.12109 L 555.16016,630 l -5.78321,0 z"
         style="font-style:normal;font-variant:normal;font-weight:800;font-stretch:normal;font-size:20px;line-height:100%;font-family:Sonic;-inkscape-font-specification:'Sonic Ultra-Bold';text-align:end;writing-mode:lr-tb;text-anchor:end;fill:#000000;fill-opacity:1;stroke:none;stroke-width:3;stroke-linejoin:round;stroke-miterlimit:4;stroke-dasharray:none;stroke-opacity:1"
         inkscape:connector-curvature="0" />
      <path
         d="m 593.75178,938.26841 q 1.11845,0 1.72561,0.5752 0.63911,0.5752 0.63911,1.56583 0,0.54324 -0.12782,0.95866 l -5.24072,17.991 -20.13203,0 10.99273,-13.26157 6.29525,0 -6.5509,8.62801 4.5377,0 3.35533,-10.73708 q 0.032,-0.0959 0.032,-0.15978 0.032,-0.0959 0.032,-0.22368 0,-0.70303 -0.86281,-0.70303 l -6.77458,0 2.04516,-4.63356 10.03405,0 z"
         style="font-style:normal;font-variant:normal;font-weight:800;font-stretch:normal;font-size:20px;line-height:100%;font-family:Sonic;-inkscape-font-specification:'Sonic Ultra-Bold';text-align:end;writing-mode:lr-tb;text-anchor:end;fill:#000000;fill-opacity:1;stroke:none;stroke-width:3;stroke-linejoin:round;stroke-miterlimit:4;stroke-dasharray:none;stroke-opacity:1"
         id="path4248"
         inkscape:connector-curvature="0" />
      <path
         d="m 605.7656,951.97736 q 0.0959,-0.19173 0.0959,-0.41542 0,-0.38347 -0.31956,-0.67107 -0.2876,-0.31955 -0.79889,-0.31955 l -1.53387,0 -4.05836,8.78778 -6.10352,0 5.9757,-13.10179 9.4269,0 0.8628,-2.0132 q 0.0959,-0.22369 0.0959,-0.47934 0,-0.38346 -0.2876,-0.63911 -0.2876,-0.2876 -0.83085,-0.2876 l -7.73325,0 2.07711,-4.56965 11.05664,0 q 1.438,0 2.20494,0.63911 0.79889,0.63911 0.79889,1.69365 0,0.5752 -0.35152,1.31018 l -3.22751,7.15805 q -0.44738,0.92671 -1.05454,1.31018 -0.60715,0.35151 -1.7256,0.35151 l -0.19173,0 q 1.08649,0.70303 1.08649,1.88538 0,0.25565 -0.0959,0.60716 -0.0639,0.31956 -0.25564,0.73498 l -2.46058,5.40049 -5.94374,0 3.29142,-7.38174 z"
         style="font-style:normal;font-variant:normal;font-weight:800;font-stretch:normal;font-size:20px;line-height:100%;font-family:Sonic;-inkscape-font-specification:'Sonic Ultra-Bold';text-align:end;writing-mode:lr-tb;text-anchor:end;fill:#000000;fill-opacity:1;stroke:none;stroke-width:3;stroke-linejoin:round;stroke-miterlimit:4;stroke-dasharray:none;stroke-opacity:1"
         id="path4251"
         inkscape:connector-curvature="0" />
      <path
         d="m 618.37408,959.3591 -6.10352,0 6.07157,-13.26157 9.29907,0 0.76694,-1.78951 q 0.0959,-0.22369 0.0959,-0.47934 0,-0.41542 -0.2876,-0.67106 -0.28761,-0.25565 -0.83085,-0.25565 l -7.60543,0 2.07711,-4.63356 11.05664,0 q 1.438,0 2.20493,0.63911 0.79889,0.63911 0.79889,1.69365 0,0.5752 -0.35151,1.31018 l -2.71622,5.9757 q -0.41543,0.92671 -0.83085,1.46995 -0.41542,0.54325 -0.95867,0.8628 -0.51129,0.31956 -1.24627,0.41543 -0.70302,0.0959 -1.69364,0.0959 l -5.78396,0 -3.9625,8.62801 z"
         style="font-style:normal;font-variant:normal;font-weight:800;font-stretch:normal;font-size:20px;line-height:100%;font-family:Sonic;-inkscape-font-specification:'Sonic Ultra-Bold';text-align:end;writing-mode:lr-tb;text-anchor:end;fill:#000000;fill-opacity:1;stroke:none;stroke-width:3;stroke-linejoin:round;stroke-miterlimit:4;stroke-dasharray:none;stroke-opacity:1"
         id="path4253"
         inkscape:connector-curvature="0" />
      <path
         d="m 649.46024,959.3591 -6.10352,0 6.8385,-15.05108 q 0.12782,-0.25565 0.12782,-0.5752 0,-0.35151 -0.31956,-0.5752 -0.2876,-0.25565 -0.83084,-0.25565 l -1.53387,0 2.07711,-4.63356 9.33104,0 -9.58668,21.09069 z"
         style="font-style:normal;font-variant:normal;font-weight:800;font-stretch:normal;font-size:20px;line-height:100%;font-family:Sonic;-inkscape-font-specification:'Sonic Ultra-Bold';text-align:end;writing-mode:lr-tb;text-anchor:end;fill:#000000;fill-opacity:1;stroke:none;stroke-width:3;stroke-linejoin:round;stroke-miterlimit:4;stroke-dasharray:none;stroke-opacity:1"
         id="path4255"
         inkscape:connector-curvature="0" />
      <path
         d="m 670.09906,944.30802 q 0.12782,-0.31956 0.12782,-0.47934 0,-0.41542 -0.31955,-0.67106 -0.31956,-0.25565 -0.89476,-0.25565 -1.46996,0 -2.07711,1.34214 l -4.09032,9.07539 q -0.12782,0.31955 -0.12782,0.47933 0,0.41542 0.35151,0.67107 0.38347,0.25564 1.02258,0.25564 1.27822,0 1.88538,-1.34213 l 4.12227,-9.07539 z m 0.63911,11.98335 q -0.44737,0.95867 -0.95866,1.56582 -0.51129,0.60716 -1.18236,0.95867 -0.67107,0.31956 -1.53387,0.44738 -0.83084,0.0959 -1.94929,0.0959 l -6.8385,0 q -1.438,0 -2.20493,-0.63911 -0.79889,-0.63911 -0.79889,-1.66169 0,-0.60715 0.35151,-1.34213 l 6.51894,-14.38002 q 0.44738,-0.95867 0.95867,-1.56583 0.51129,-0.60715 1.18235,-0.92671 0.67107,-0.35151 1.50192,-0.44738 0.8628,-0.12782 1.98124,-0.12782 l 6.8385,0 q 1.438,0 2.23689,0.63911 0.79889,0.63911 0.79889,1.66169 0,0.54325 -0.38346,1.34214 l -6.51895,14.38002 z"
         style="font-style:normal;font-variant:normal;font-weight:800;font-stretch:normal;font-size:20px;line-height:100%;font-family:Sonic;-inkscape-font-specification:'Sonic Ultra-Bold';text-align:end;writing-mode:lr-tb;text-anchor:end;fill:#000000;fill-opacity:1;stroke:none;stroke-width:3;stroke-linejoin:round;stroke-miterlimit:4;stroke-dasharray:none;stroke-opacity:1"
         id="path4257"
         inkscape:connector-curvature="0" />
    </g>
    <path
       style="fill:#000000"
       d="m -609.91848,476.17317 c -43.41148,-1.4386 -83.70465,-32.34835 -96.5363,-73.80235 -13.10973,-39.28939 -0.62955,-85.52649 30.81365,-112.59906 32.21034,-29.41467 82.99725,-35.26236 121.1345,-14.17454 36.25405,18.94498 59.14424,60.10579 56.02795,100.90526 -2.21056,42.92858 -33.19615,82.3924 -74.33149,94.85239 -11.96641,3.83642 -24.57158,5.26182 -37.10831,4.8183 z m 5.35349,-11.06445 c 1.26234,-5.27499 -1.59837,-9.46912 -1.00646,-1.77598 0.16109,0.86969 -0.57222,2.25526 1.00646,1.77598 z m 8.12986,-0.39691 c 0.64824,-13.19016 -4.96043,0.31251 0,0 z m -19.59047,-2.8435 c 2.07411,-5.47568 -5.01489,-10.82038 -4.44659,-1.33571 -2.82847,4.11543 5.55711,5.97134 4.44659,1.33571 z m 24.78311,2.29426 c 0.0163,-7.93237 -3.74882,0.71322 0,0 z m -30.86528,-0.98882 c -3.53206,-4.32398 -5.19117,1.91829 0,0 z m 36.22102,0.0439 c 0.1737,-6.5387 -3.76426,0.20958 0,0 z m -25.07356,-0.37108 c 2.04027,-4.97226 -0.25976,-19.68826 -1.0058,-6.55306 0.36294,1.08988 -1.44142,8.24752 1.0058,6.55306 z m 29.37488,-0.55141 c 9.9809,0.55731 0.72261,-7.1693 3.22648,-11.55402 1.85809,10.0178 11.48843,9.34042 16.88007,3.27938 -1.63288,-4.28951 -10.23513,-18.05355 -5.26112,-6.33949 6.85638,14.62327 -9.47751,-15.97431 -3.06336,-0.76619 4.47498,3.93305 1.8912,8.72476 -0.68109,1.51292 -2.6454,-3.17431 -5.64716,-20.44387 -10.05148,-13.59707 2.13049,4.03675 6.33609,22.13408 1.62247,11.89225 -2.90474,-1.27899 -5.4775,-15.45141 -9.01557,-16.48032 2.18247,5.20913 4.01398,12.66858 -2.15397,11.66258 0.59893,4.60509 0.14038,19.8559 5.41825,14.46562 1.19669,1.39118 0.21538,7.37252 3.07932,5.92434 z m 2.79667,-12.65432 c -0.15849,-0.65068 0.42218,0.49409 0,0 z m -55.77204,10.41941 c 0.75913,-3.49841 8.77785,-16.48175 3.31253,-14.78063 0.93499,7.22341 -5.87842,7.47971 -6.27014,14.16421 0.55058,-0.73948 2.67322,2.08964 2.95761,0.61642 z m -5.134,-2.19546 c 2.72499,-5.88815 -3.32567,-8.69226 -4.75577,-1.24942 1.27878,0.005 4.05673,3.15163 4.75577,1.24942 z m 49.64594,-0.2694 c 1.28081,-4.58444 -4.39163,-19.20885 -2.38781,-6.38716 0.85642,1.31081 -0.14216,7.65117 2.38781,6.38716 z m -34.67876,-0.87422 c 3.69147,-10.44682 -2.44065,-2.31249 0,0 z m -2.74544,-2.60646 c 2.76701,-7.28062 -2.82674,-0.0395 0,0 l 0,0 z m -19.69517,-0.99412 c 3.01263,-3.72332 7.67839,-16.31906 0.94994,-6.25351 -0.26423,1.16398 -5.92206,8.46157 -0.94994,6.25351 z m 90.63468,-1.09128 c 3.20017,-4.86624 -6.64337,-9.25555 -8.93036,-12.28912 -0.86579,-3.90924 -8.41101,-11.93914 -3.8191,-3.23569 3.55827,3.89918 8.03595,16.63347 12.74946,15.52481 z m -60.07363,-1.65713 c 2.28622,-4.83836 0.84146,-15.7156 -0.6384,-4.38101 0.21851,0.84817 -1.63077,5.50484 0.6384,4.38101 z m -38.65191,-5.45784 c 2.48897,-2.88993 12.48077,-17.22634 3.29342,-11.11471 -3.98493,6.8386 -15.48839,11.1084 -6.23457,15.11445 1.07036,-0.82332 1.95836,-2.80123 2.94115,-3.99974 z m 105.03325,3.03805 c -1.52723,-8.33566 -11.88775,-10.46497 -14.84937,-18.47479 -7.52566,-10.04445 -1.76364,4.65409 1.90203,8.0001 3.18033,7.35175 5.23541,-2.03413 7.88245,5.68847 1.66674,1.02001 3.60995,4.73355 5.06489,4.78622 z m -56.78441,-0.62739 c 2.50637,-3.65482 -0.34424,-18.38247 -1.65403,-7.7486 0.43279,1.66156 -1.04805,8.30079 1.65403,7.7486 z m -19.96808,-0.94821 c 0.83198,-4.18181 8.47161,-16.27712 4.40914,-16.80636 -0.73076,4.74328 -6.56427,13.50559 -4.40914,16.80636 z m -35.34268,-3.10152 c 0.86312,-4.80827 -4.33862,5.35405 0,0 z m -1.60645,-0.98538 c 4.15098,-3.04039 9.86598,-18.57771 6.70226,-6.93651 -0.14283,4.86871 5.14835,-9.05948 8.78896,-9.41097 6.58018,-4.44184 0.39378,-10.50286 -2.72519,-2.68671 -4.65654,6.57099 -14.92975,11.56559 -15.22082,19.51398 l 1.15747,0.91221 1.29732,-1.392 0,0 z m 120.59716,0.36616 c -2.63515,-5.35557 -9.07877,-12.27741 -14.31343,-16.04141 2.08592,5.56082 9.6301,13.10967 14.31343,16.04141 z m -94.55644,-0.0294 c 1.0244,-2.84577 8.93595,-12.88202 5.43902,-12.79812 -0.91825,3.68863 -7.69019,10.3109 -5.43902,12.79812 z m -29.41728,-3.20183 c -3.66125,-6.10965 11.15402,-10.67327 11.37894,-16.29783 -2.74721,5.84542 -19.48918,10.38625 -13.36366,17.10105 l 0.83121,0.4547 1.15354,-1.25791 -3e-5,-10e-6 z m 64.83168,-0.79135 c 1.20311,-5.6559 -1.89518,-9.27277 -1.00714,-1.06875 l 0.11645,0.9979 0.89068,0.0709 10e-6,-5e-5 z m -16.66684,-1.03783 c 3.27971,-3.90308 1.45507,-19.54973 -0.69297,-7.00352 0.65805,1.51315 -2.81473,8.30486 0.69297,7.00352 z m -27.42495,-1.60014 c 4.26354,-4.04046 6.71492,-12.13097 0.17377,-4.86619 1.89215,1.10072 -3.3035,5.59002 -0.17377,4.86619 z m 63.88017,-0.54116 c -1.21696,-7.71941 -3.72453,-1.74906 -0.0492,0.61819 l 0.0492,-0.61819 z m -25.263,-1.767 c 1.74156,-3.83376 -0.57317,-10.48933 3.7131,-7.94973 -0.11407,-4.48345 0.4333,-8.0196 3.27001,-5.38705 1.77914,-6.44556 2.48924,-17.59764 -4.02492,-20.84147 -0.33659,3.70871 1.15032,8.02335 -1.4889,10.78037 0.085,8.83148 -2.38155,15.05677 -2.21985,24.03066 l 0.33064,0.19752 0.41985,-0.83032 7e-5,2e-5 z m 19.11991,0.11575 c 0.45922,-5.9159 -4.87582,-10.91803 -1.60686,-1.72973 0.15278,0.35586 0.63035,2.70839 1.60686,1.72973 z m 55.73993,-1.18056 c 7.17976,-5.71151 -10.09438,-9.76636 -13.31422,-15.87136 -7.7791,-2.64244 -3.47255,4.82242 1.54215,6.05994 3.1567,2.98032 7.3481,11.87339 11.77207,9.81142 z m -141.40401,-0.0892 c 4.55657,-4.83018 -2.20119,5.00429 3.70925,-1.07216 3.16387,-4.40344 9.73574,-9.65061 10.5935,-13.79001 -6.77355,1.97827 -9.34577,13.7536 -11.32711,10.617 -1.01391,0.50346 -8.52808,7.03392 -2.97564,4.24517 z m 33.03891,-0.6658 c 3.39258,-2.83462 5.83649,-12.51213 0.65886,-3.68822 -0.0225,0.15883 -3.7057,5.34278 -0.65886,3.68822 z m 61.40428,-0.27064 c 1.00749,-4.93808 -7.43715,-14.58298 -3.84639,-4.6533 1.75599,0.67515 1.56806,6.09019 3.84639,4.6533 z m -16.80614,-2.78412 c -0.84449,-6.6715 -1.41999,3.75101 0,0 z m -31.42704,0.0884 c 1.48471,-4.37844 6.3661,-10.57335 3.14332,-1.71507 4.51705,-3.3192 8.94067,-14.08419 8.85832,-21.62594 -6.41356,2.54598 -8.28703,16.12505 -12.71996,22.87676 -0.43475,0.44857 0.46832,1.40292 0.71832,0.46425 z m 55.9193,-0.40771 c 4.84505,-7.07492 -7.43532,-15.66689 -10.25922,-22.61733 -6.84711,3.56509 5.24624,13.07154 4.09226,19.28738 0.69977,2.94047 3.84315,2.98465 6.16696,3.32995 z m 29.16513,-0.41521 c -1.62542,-3.45606 -10.43378,-8.95886 -3.80304,-2.45184 0.99842,0.25987 2.51075,3.26915 3.80304,2.45184 z m -15.70044,-1.19622 c -1.46344,-5.04909 -8.71295,-8.49685 -2.48395,-1.82119 0.61886,0.34781 1.78072,3.20848 2.48395,1.82119 z m 27.71513,-0.91737 c -1.42998,-4.96489 -17.26635,-11.96387 -6.04006,-3.53389 1.89967,0.81119 3.79367,4.13704 6.04006,3.53389 z m 4.23629,-1.1137 c -6.59538,-6.58223 -5.48888,-0.262 0,0 z m -104.97882,-0.30462 c 6.51524,-9.76584 -2.96043,-1.77143 0,0 z m 66.15647,-0.23823 c -1.18022,-4.22065 -2.64305,-0.0954 0,0 z m -2.70159,-0.53992 c 1.20162,-4.1539 -5.04005,-15.93671 -3.0663,-6.35885 -4.72627,-2.9095 1.67381,7.25358 3.0663,6.35885 z m -72.78708,-0.68346 c 4.37289,-3.89892 4.03885,-9.2291 -0.0842,-2.19302 -1.37751,0.008 -1.87634,4.40623 0.0842,2.19302 z m -36.53621,0.1497 c 3.54368,-2.78865 -2.77434,0.48803 0,0 z m 81.17007,-0.69527 c 0.27642,-9.27249 -3.95963,-4.31186 0,0 z m 6.50593,-0.0552 c 0.29224,-5.47368 -4.71237,-9.35652 -1.38555,-0.94815 -0.3782,0.39409 1.05702,1.9346 1.38555,0.94815 z m -43.60056,-1.6683 c 4.39145,-5.52946 1.23738,-6.15475 -0.9147,-0.26514 -1.46648,1.64941 0.49813,1.85947 0.9147,0.26514 z m 46.70339,0.99833 c -0.17645,-5.79962 -4.43863,-6.8612 -0.99162,-0.27238 l 0.50994,0.47557 0.48168,-0.20319 0,0 z m -97.04471,-1.34729 c 5.76504,-5.72514 -6.4331,1.32331 0,0 l 0,0 z m 159.95633,0.0827 c -4.32617,-3.90521 -0.73448,2.78037 0,0 z m -142.25302,0.046 c 0.24553,-3.23275 -3.55973,1.00909 0,0 z m 39.98134,-0.54345 c 2.243,-2.42658 5.10212,-12.40987 0.1582,-3.15927 -0.82314,0.31034 -2.68329,5.26693 -0.1582,3.15927 z m 69.36777,0.01 c -1.52091,-5.03492 -8.94788,-12.68286 -12.31165,-14.27011 3.53228,4.87321 6.74039,11.7472 12.31165,14.27011 z m -27.15227,-1.81137 c 0.79205,-5.05168 -5.6123,-8.63395 -1.30201,-1.23397 0.25031,0.0351 0.58767,1.82941 1.30201,1.23397 z m -101.00049,-3.69268 c 10.571,-4.89899 -6.36787,-3.17225 -2.99827,1.59738 l 0.95041,-0.48597 2.04786,-1.11141 0,0 z m 128.74899,1.33768 c -0.42516,-3.84462 -10.4884,-8.16288 -3.11597,-1.80187 0.90374,-0.47245 1.96422,3.09696 3.11597,1.80187 z m -88.00338,-0.47489 c 9.10878,-8.01561 0.44538,-4.99645 0,0 z m 32.45591,-0.0477 c 4.42936,-10.54538 -4.18209,-1.6691 0,0 z m 45.24668,-1.0181 c 0.10946,-3.65883 -9.19913,-8.96778 -3.25761,-2.37493 0.873,0.19271 1.97603,3.37135 3.25761,2.37493 z m -87.96312,-1.37827 c 3.43272,-4.53213 -5.97225,3.99225 0,0 z m 11.12438,-1.69437 c 8.27585,-8.40604 -8.32602,-1.27456 -3.7074,1.77121 1.80933,0.55579 2.5624,-0.24328 3.7074,-1.77121 z m 122.17152,1.31194 c -2.38224,-2.34045 -1.09694,1.4314 0,0 z m -19.19994,0.14752 c -2.13263,-3.93175 -5.36357,-1.39527 0,0 z m -146.39963,-1.48057 c 11.50143,-6.97959 -12.11183,3.43589 0,0 l 0,0 z m 12.07425,0.98115 c 3.25112,-0.60143 13.16815,-9.04714 4.28899,-4.3928 -0.83394,0.54177 -10.15726,5.60943 -4.28899,4.3928 z m 14.21382,-0.29862 c 7.13566,-3.97032 -1.08919,-2.93487 -0.87716,0.4498 l 0.87716,-0.4498 z m 113.75483,0.10229 c -2.43639,-4.64381 -9.60582,-4.49284 -2.63826,-0.83337 0.60481,0.0296 1.83634,1.69093 2.63826,0.83337 z m -6.70511,-0.2896 c -2.25303,-4.38831 -9.54317,-5.95894 -2.23657,-0.71672 0.24347,-0.31105 1.81324,1.84662 2.23657,0.71672 z m 35.70141,-2.50894 c -4.64816,-5.74539 -16.51871,-7.70983 -21.53334,-14.05147 1.02747,-5.42275 6.53709,0.46198 7.03109,2.62935 4.02315,1.60028 18.67487,7.797 15.90317,2.78809 -10.74368,-1.5894 -12.95768,-6.5118 -21.89796,-9.39193 -7.31974,-0.38702 -18.64572,-10.82001 -23.80734,-3.93107 6.7209,8.60834 20.08118,7.60877 28.35195,14.23955 4.68404,1.86113 12.74199,8.60238 15.95243,7.71748 z m -14.35496,-13.94998 c -0.28212,-0.93929 1.2781,0.91194 0,0 z m -77.56017,14.72003 c 3.143,-3.34289 2.23443,-20.50539 0.0695,-8.20514 0.34872,1.41674 -2.64306,8.8676 -0.0695,8.20514 z m -3.54987,-1.3429 c 4.61323,-3.76055 0.89836,-11.53587 -0.66324,-2.53301 -0.12889,0.0712 -1.32982,4.27889 0.66324,2.53301 z m 17.92316,-0.076 c 0.13206,-9.21227 -5.46457,-4.13146 0,0 z m 4.02229,-0.48029 c -1.01331,-6.6905 -2.97081,0.12529 0,0 z m 42.64806,-0.55983 c -0.3298,-5.25088 -17.24863,-10.14833 -5.73349,-2.75668 1.74219,0.62528 3.77702,3.71408 5.73349,2.75668 z m -111.57655,-0.2702 c 13.43767,-8.66804 -6.22401,0.41159 0,0 z m 95.93105,-0.37567 c -1.91019,-4.57838 -4.882,-0.81014 0,0 z M -678.221,405.54945 c 6.61493,-1.8334 18.14111,-5.65411 17.20146,-12.97805 -6.45699,-0.0529 -27.40033,7.57552 -17.20151,12.97805 l 5e-5,0 z m 37.0549,-0.94824 c 7.74931,-5.40444 1.75232,-8.38767 -2.14118,-1.14463 0.25588,0.81516 1.34398,1.98597 2.14118,1.14463 z m 12.45541,-0.25946 c 5.80346,-5.63107 -2.1232,-3.44211 -0.61852,0.42162 l 0.61852,-0.42162 0,0 z m 45.90314,-0.47854 c -1.86699,-6.32794 -4.06806,-1.04008 0,0 z m -108.8045,-1.87573 c 6.87132,-1.02444 5.21543,-4.89229 -0.94407,-1.18373 -4.61702,0.67023 -1.24393,4.08062 0.94407,1.18373 z m 28.82885,0.55458 c 6.49491,-4.26549 -4.97686,0.91247 0,0 z m 11.40568,-0.65189 c 3.96974,-5.63995 17.69847,-7.96787 16.12365,-14.71925 -7.53234,1.41822 -9.52947,6.9369 -13.50559,10.8418 -0.99469,0.22899 -6.5913,4.95841 -2.61806,3.87745 z m 35.50554,-1.89436 c 4.67294,-8.50905 -3.60537,-0.88897 0,0 z m 54.86148,-0.16216 c -4.65872,-5.46555 -8.01269,-1.95939 0,0 z m -132.31958,-0.56404 c 9.56146,-4.12406 -8.40522,0.49637 0,0 l 0,0 z m 179.26761,-0.0679 c -4.0173,-3.77949 -4.86361,0.83966 0,0 z m -126.98487,-1.26806 c 0.67536,-2.62478 -2.48459,1.22231 0,0 z m 127.56115,-0.53241 c 2.6853,-6.19301 3.95999,-13.52849 -4.4987,-10.21669 -4.94157,-0.5792 -13.44683,-3.65274 -3.06901,-1.79438 10.69616,1.33328 -7.18368,-5.00167 -7.79563,-1.0616 -6.68063,-2.20021 6.44732,6.35927 -2.37233,4.60783 -10.02432,-0.47556 6.7515,6.94723 10.10314,6.55083 2.27934,0.2005 5.73112,2.47646 7.63253,1.91401 z m -113.75107,-1.30878 c 8.82305,-11.34867 -7.28814,1.59596 0,0 z m 22.76006,0.59884 c 1.59472,-6.40582 -3.00724,0.14556 0,0 z m 52.58375,0.0864 c -0.41024,-2.87749 -15.60507,-7.16919 -5.93113,-2.07119 1.89208,0.63776 3.80174,2.73624 5.93113,2.07119 z m -18.97948,-0.20947 c 2.43665,-7.72469 -12.74,-6.45527 -2.29967,-0.97165 0.69125,0.23085 1.40451,1.51467 2.29967,0.97165 z m -10.70953,-0.9183 c -2.28336,-6.29943 -5.20524,-0.98357 0,0 z m -52.70041,-0.90535 c 7.30351,-4.7691 -2.77642,-3.48187 -1.1774,0.80805 l 1.1774,-0.80805 0,0 z m 72.58004,0.22959 c -1.98121,-4.15813 -14.85216,-8.28066 -4.69939,-1.79149 1.37219,0.62569 3.17652,2.74152 4.69939,1.79149 z m -131.72908,-1.36072 c 6.94688,-0.70821 5.91938,-4.35414 -0.71781,-1.61302 -5.4452,0.28722 -3.54972,3.8242 0.71781,1.61302 z m 70.75138,0.0422 c 4.59875,-7.17714 -4.95515,2.56423 0,0 z m 21.41056,-0.13222 c 0.7888,-10.22032 -4.8996,0.59416 0,0 z m -3.01471,-0.51799 c 1.48516,-5.88886 -3.25865,-0.0449 0,0 z m 14.27966,-1.05577 c -1.85802,-5.60919 -3.26098,0.51256 0,0 z m -4.69482,-0.20038 c -1.32884,-1.32851 -0.58872,1.4895 0,0 z m -80.01847,-0.14991 c 4.84215,-0.0814 15.91719,-2.88385 6.00141,-2.84704 -3.55893,-0.19513 -16.78824,4.50723 -6.00141,2.84704 z m 68.2762,-0.61768 c 3.99494,-4.75579 1.15925,-9.82785 -1.80304,-2.67719 -0.694,0.94293 0.20119,3.70875 1.80304,2.67719 z m 19.03623,-0.16652 c 1.06535,-5.05985 -7.53986,-5.01584 -0.93158,5.2e-4 l 0.45746,0.17771 0.47412,-0.17782 0,-4.1e-4 z m -40.50738,-0.30938 c 7.44667,-4.25469 -1.8564,-4.20108 -0.62143,0.23384 l 0.62141,-0.23389 2e-5,5e-5 z m -66.70279,-1.30053 c 10.20865,-1.16206 14.93485,-8.91735 26.10563,-8.30597 8.24658,-3.6044 16.1376,1.17243 23.22063,-2.96276 -4.77001,-3.35784 -4.50442,-5.65474 -0.40158,-7.44522 -8.135,0.36403 -15.30376,3.46262 -24.80104,3.93665 -3.43188,6.96655 -14.48663,5.46795 -20.11638,3.87328 -4.41288,-2.25018 -14.84885,3.16008 -4.82185,2.45394 -11.73377,3.78608 6.23633,-0.6201 8.1029,0.75354 -2.92995,2.81363 -17.42913,2.28008 -9.78004,8.23979 l 1.13002,-0.24452 1.36173,-0.2986 -2e-5,-1.3e-4 z m 114.2821,-0.97361 c -2.34878,-6.13254 -7.14195,-0.88851 0,0 z m -49.82376,-0.24047 c 10.81688,-5.3582 -3.47499,-5.2111 -1.45414,0.34191 l 1.45414,-0.34191 0,0 z m 11.37173,-0.0969 c 3.10176,-4.60001 -3.69471,1.21922 0,0 l 0,0 z m -50.01754,-1.03131 c 8.98409,-1.57271 3.6497,-4.3712 -2.40998,-1.14823 -4.96336,1.87523 0.97007,2.29309 2.40998,1.14823 z m 54.92802,0.0628 c 5.7225,-4.50239 -0.27766,-9.08786 -2.20256,-1.81959 -0.52341,1.24672 1.05975,2.57531 2.20256,1.81959 z m -63.21932,-0.1296 c 4.60536,-2.51322 -4.16392,0.28598 0,0 z m 27.62466,-0.40573 c 5.08422,-0.68018 12.82339,-3.071 4.06326,-4.65338 -4.09286,-2.24052 -15.96928,4.23083 -5.98635,4.97357 l 1.92309,-0.32019 0,0 z m 15.38258,-0.68016 c 6.10454,-2.00863 6.79828,-8.49929 -0.13212,-2.2734 -2.56491,0.38723 -2.90848,4.01701 0.13212,2.2734 z m 13.0562,0.19469 c 6.81951,-4.89926 -3.52981,-2.93541 -0.75758,0.16726 l 0.75768,-0.16722 -10e-5,-4e-5 z m 23.60873,-0.25205 c -0.43149,-2.51843 -1.98982,1.70949 0,0 z m -3.12281,0.008 c -0.67703,-0.70269 -0.58066,0.61323 0,0 z m 36.33669,-0.32433 c -0.20256,-4.99496 -13.39093,-3.59547 -3.08332,-0.48785 l 2.12234,0.66382 0.96098,-0.17597 0,0 z m 24.66847,-1.07762 c -3.90944,-3.31734 -11.6171,-1.00289 -2.21509,0.23244 0.0411,-0.53581 2.56085,0.89593 2.21509,-0.23244 z m 25.7513,-0.25217 c -0.97238,-0.8708 -1.74366,0.61096 0,0 z m -92.79915,-1.38226 c 1.66498,-6.3929 -3.00328,-1.00649 0,0 z m 52.31507,-0.43072 c 2.26172,-5.32338 -12.17356,-5.9769 -14.76772,-4.82871 4.59672,2.03769 9.6354,4.69585 14.76772,4.82871 z m 38.6537,-0.12651 c 2.72138,-0.95755 9.6357,-2.20856 4.33946,-6.15327 -5.93463,1.14239 -9.42116,-3.43309 -12.98828,-1.63477 10.67349,3.78363 -17.27739,3.73431 -3.75933,6.27498 4.15823,0.25668 8.25977,1.64256 12.40815,1.51306 z m -127.17698,-0.27047 c 1.12228,-2.18793 -2.54105,0.91655 0,0 z m 66.89926,-0.92285 c -0.22099,-2.53975 -2.6492,0.54045 0,0 z m -6.75143,-0.32803 c -3.91702,-5.40116 -6.97968,-0.44229 0,0 z m -54.45653,-0.57438 c 8.71166,-3.47838 -6.41036,-0.55577 0,0 z m 39.3599,-0.36522 c 7.36164,-2.52755 -9.87569,-10.08107 -2.86316,-0.51327 l 1.50102,0.76189 1.36216,-0.24862 -2e-5,0 z m 56.35241,-1.20167 c 1.01775,-5.17471 -19.8554,-2.54918 -6.07352,-0.40597 2.01624,0.08 4.06548,0.91351 6.07352,0.40597 z m -89.85242,-0.64436 c 4.02534,-3.31739 -5.95243,0.88002 0,0 z m -64.4893,-0.69423 c 12.54916,-2.40057 -13.87518,0.0153 -3e-5,9e-5 l 3e-5,-9e-5 z m 101.57107,-1.57057 c 1.63995,-5.70658 -8.54781,-0.8273 0,0 z m -21.94181,-0.6583 c -0.6944,-2.33491 -1.45894,1.98707 0,0 z m 106.5834,-0.24642 c -1.18953,-3.56932 -9.91417,0.8807 -1.0703,0.18602 l 1.07027,-0.18597 3e-5,-5e-5 z m -114.28631,-0.0739 c -1.38325,-1.89011 -0.13488,-0.61664 0,0 z m 95.08858,-0.49923 c -0.91325,-4.47734 9.34692,-4.25949 0.70117,-4.88923 -5.88825,3.22269 -19.0603,-3.2584 -20.57203,3.56308 6.32594,1.38476 13.35853,1.693 19.87086,1.32615 z m -106.30159,-0.66109 c 7.65293,-3.70645 -9.29469,0.12684 0,0 z m -32.43233,-1.15502 c 10.80756,-2.8643 -9.28192,0.46787 -5.58754,-5.08853 -4.03622,-1.11434 -21.28405,0.53355 -15.80671,-5.95928 -6.14645,-2.63046 -15.56693,-0.76633 -7.59697,1.55985 -6.31128,-2.08301 -6.08375,12.99416 1.68283,8.307 11.49464,-1.41065 -14.25597,-5.42955 -0.80638,-4.9156 5.398,2.62605 13.17369,1.46188 17.40201,4.18217 3.73508,1.00835 5.39949,3.24162 10.71276,1.91439 z m 99.03993,-0.90499 c 0.54182,-2.35145 -4.32473,0.67846 0,0 z m -46.30493,-0.3924 c -0.46858,-1.23098 -0.48399,1.21876 0,0 z m 37.76478,0.19729 c 0.64229,-3.72054 -5.74595,1.36363 0,0 z m -56.23417,-0.70509 c -1.77853,-4.20373 -9.26848,2.24901 0,0 z m 51.88153,0.0476 c -1.25172,-4.01938 -6.77603,1.9502 0,0 z m 23.83831,-0.54297 c 10.21972,-4.82074 -13.45495,0.82422 -1.29889,0.56448 0.41531,-0.20428 1.66188,0.46487 1.29889,-0.56448 z m 48.05027,-1.49791 c -0.99366,-5.17913 -15.9985,-3.71306 -19.08882,-1.64663 6.434,0.1437 12.51569,3.0131 19.08882,1.64663 z m -95.62117,-0.10137 c 2.05539,-3.99806 -3.97855,0.0334 0,0 z m 44.00433,-0.88335 c -0.36977,-2.00811 -2.99388,1.40488 0,0 z m -100.60994,-0.34854 c -0.76783,-3.98974 -14.87342,0.58573 0,0 z m 49.42983,0.0463 c 0.73158,-3.99644 -5.03747,0.54597 0,0 z m 82.30682,-0.34059 c -2.68462,-1.21193 -9.43351,-2.43535 -13.51423,-0.83625 4.14212,0.53636 8.87542,1.49227 13.51418,0.83635 l 5e-5,-1e-4 z m -106.57405,-0.22569 c -0.56453,-4.65193 -11.85723,-4.5e-4 -2.12295,0.21296 l 1.06718,0.0471 1.05572,-0.26011 5e-5,0 z m 9.14896,0.0911 c -0.67728,-2.89931 -3.69549,1.01089 0,0 z m 71.97419,-0.41153 c -0.55015,-2.77619 -5.90499,1.14429 0,0 z m -98.95443,-0.98628 c 2.32403,-3.6491 -10.90578,-1.5948 -2.37224,0.25257 l 1.62113,0.12713 0.75111,-0.3797 0,0 z m 43.19472,0.11739 c 0.27497,-4.7431 -4.65853,0.90708 0,0 z m 4.86298,-1.34767 c -0.11079,-4.06208 -3.11708,1.59267 0,0 z m -65.39283,0.13734 c 0.42246,-3.49421 -17.12174,-1.37704 -4.78922,-0.0656 1.58701,0.0566 3.20444,0.33935 4.78922,0.0656 z m 26.86506,-0.14963 c -1.41807,-6.78711 -15.81053,0.19134 -3.2108,0.0217 l 2.18689,0.17689 1.02391,-0.19859 0,2e-5 z m 11.97479,0.0482 c -1.73578,-3.49091 -4.87715,0.77775 0,0 z m 60.08355,-0.5325 c 7.92532,-3.3363 -9.03788,0.31997 0,0 l 0,0 z m -27.97883,-0.79263 c 0.50454,-4.48886 -3.12456,2.2415 0,0 z m -18.55709,0.34935 c -1.02283,-4.61303 -5.68062,0.23633 0,0 z m 4.44864,-0.0248 c -0.60477,-6.20284 -6.6724,0.0813 0,0 z m 19.02497,-0.002 c 0.85826,-3.5949 -3.92074,0.68961 0,0 z m 58.8445,-0.5003 c 4.09086,0.17187 18.47883,-2.47545 6.65193,-2.02001 -3.19489,-0.43118 -16.55398,2.25126 -6.65198,2.01997 l 5e-5,4e-5 z m -121.04049,-0.50076 c -0.62952,-4.24483 -13.80795,-1.48635 -2.85411,-0.0423 l 1.77705,0.16882 1.07706,-0.1265 z m 95.28625,-0.15909 c 9.61537,-2.6313 -7.69407,-0.75611 0,0 l 0,0 z m -14.01306,-0.78678 c 8.25694,-3.72824 -6.69535,0.0115 0,0 z m -106.78261,-0.25001 c 5.19489,1.9782 17.48278,-2.84227 5.92398,-4.05571 -4.86977,1.36397 -8.14108,2.63871 -13.53525,2.80573 2.2692,0.99979 5.12276,1.26241 7.61127,1.24998 z m 98.72572,-0.97043 c 6.7637,-4.12075 -6.16023,-1.53695 -1.72341,0.70867 l 1.72341,-0.70867 0,0 z m -72.47325,-0.0851 c 1.6736,-1.89937 14.89251,1.75212 5.22451,-2.48799 -5.70575,-1.85095 -8.73588,1.15559 -13.82099,0.87973 2.45085,1.242 5.87175,2.31528 8.59648,1.60826 z m 79.04161,-0.20855 c 2.20947,-2.74363 -3.99227,0.81894 0,0 z m 11.28539,-0.18282 c 5.2388,-0.28761 9.00384,-5.55308 10.76364,-7.51875 -2.15992,-0.40153 -21.95033,8.71981 -10.76364,7.51875 z m -67.85306,-0.5546 c -0.48553,-6.71531 -10.45814,-0.57025 -0.59986,0.23404 l 0.59991,-0.23404 -5e-5,0 z m -52.57026,-0.86742 c 4.12367,-6.22861 -18.06609,-7.83074 -10.96443,-1.04935 3.5966,0.0421 7.48756,2.20499 10.96443,1.04935 z m 94.21797,0.30106 c -0.65165,-1.48151 -0.94991,0.78813 0,0 z m 45.84192,-1.71243 c 5.24234,0.25578 19.92929,-3 9.45212,-3.49625 5.2533,-0.29041 9.33169,-3.96701 1.50201,-1.66498 -3.0387,2.05141 -19.73971,1.75136 -12.9757,5.66366 l 2.02157,-0.50245 0,2e-5 z m 35.93486,-0.20835 c 4.31634,-3.52381 -8.21628,1.18951 0,0 z m -65.04168,-0.65617 c 7.90413,-6.34214 -8.71329,2.5161 0,0 z m -22.73473,0.21078 c 6.0822,-8.67374 -5.37708,-2.3964 0,0 l 0,0 z m 81.32229,-0.32175 c 7.74009,-2.14011 -6.56096,-0.93035 -2.3541,0.25358 l 2.3541,-0.25358 0,0 z m -93.72819,-0.11411 c 0.0371,-7.47477 -5.60003,-1.65642 0,0 z m 5.42803,-0.78294 c 0.61513,-4.64458 -2.66276,0.0629 0,0 z m -60.35204,0.0394 c -2.59229,-3.82459 -8.18508,-0.1696 0,-7e-5 l 0,7e-5 z m 82.75113,-0.3707 c 7.39331,-5.15176 -3.7834,-1.21019 0,0 z m -54.62877,-0.46135 c -0.23223,-2.87362 -5.54225,0.37023 0,0 z m 115.7574,-1.35857 c 4.21025,0.56579 16.69132,-5.01047 5.66681,-3.63238 -5.55848,0.0127 -18.53128,5.9374 -5.66682,3.6324 l 10e-6,-2e-5 z m -25.09374,0.52775 c 8.61048,-2.2657 17.39903,-6.84082 24.17935,-10.89663 -8.82443,2.59931 -1.92849,-2.21202 -1.82626,-4.06118 -6.96845,2.15404 -13.83697,7.49467 -18.5561,8.74278 5.25609,-1.44719 9.01511,0.60405 1.01744,2.16704 -1.44981,-0.28593 -12.31364,4.61531 -4.81443,4.04799 z M -647.66,352.42498 c -3.63795,-4.53868 -9.88369,-1.26516 0,0 z m 5.2196,-0.29276 c -2.84281,-4.03289 -10.11666,-2.39522 -1.80367,0.2078 0.094,-0.16327 1.89032,0.7665 1.80367,-0.2078 z m -40.08318,0.0134 c -2.19262,-3.38289 -24.09872,-6.00725 -10.53097,-2.19812 3.4025,0.84351 7.05553,2.41971 10.53097,2.19812 z m 57.31359,-0.15706 c 2.70342,-4.2075 -7.3466,-6.57763 -2.13509,-0.59559 l 1.25442,0.91842 0.88067,-0.32288 0,5e-5 z m 34.8991,-0.44663 c 6.96826,-10.05185 -4.21064,-0.5967 0,0 z m 23.48466,-0.76077 c 5.03058,-2.58212 14.16762,-5.69513 12.22472,-10.88509 6.53735,8.02159 17.59381,-7.93148 25.36532,-6.93546 4.57435,-0.0215 13.05909,-7.39464 3.28943,-2.51526 -4.57717,-0.87474 12.03893,-2.28091 4.70493,-6.93783 -4.21863,1.64272 -15.76808,7.71766 -15.69991,5.16312 4.23429,-2.24942 19.37029,-10.19915 9.7353,-11.17241 -6.56762,4.38558 -14.26268,9.30616 -14.49488,13.9271 -7.19065,6.07534 -16.77575,6.04711 -22.56844,13.67495 -2.5065,0.72342 -10.49215,6.79533 -2.55647,5.68088 z m 8.66976,0.0746 c 4.339,-0.7956 9.99668,-3.85641 4.62835,-3.58961 5.25173,-5.19126 11.06546,-0.70279 13.58396,-5.44348 -5.09029,2.96094 -5.41373,-3.53419 -11.50828,1.87213 -4.46485,2.05832 -5.16826,5.40879 -8.05789,7.46845 l 1.35386,-0.30749 0,0 z m -108.90405,-0.25795 c 1.14495,-3.76363 15.29738,2.90805 6.24827,-2.27637 -4.92087,-3.34508 -10.18976,-4.39918 -11.5818,-2.01233 -3.7668,-0.2296 -18.31119,-8.70898 -15.05328,-1.16439 6.62397,1.63853 13.83125,5.43252 20.38681,5.45309 z m 84.3428,-0.81071 c 6.80073,-6.74648 -5.24239,1.76138 -2e-5,0 l 2e-5,0 z m -52.55897,0.2907 c -4.72368,-6.29682 -7.24642,-0.84523 0,0 z m -51.19133,-0.95813 c -3.15758,-3.29515 -8.20139,-0.64783 -0.69199,0.23546 l 0.69199,-0.23546 0,0 z m 170.73308,-1.66252 c 10.02061,-2.49607 -7.398,-3.67763 -5.16581,0.98491 1.76665,0.015 3.46434,-0.59334 5.16581,-0.98491 z m -104.48377,0.3178 c 3.08328,-5.305 -11.05456,-15.61593 -5.63998,-5.1506 1.61643,1.52957 3.04528,5.82314 5.63998,5.1506 z m 28.37152,-0.37786 c 0.45372,-1.48738 -1.41419,0.51556 0,0 z m -39.99903,-0.70262 c 0.33646,-1.74752 -1.55445,0.55327 0,0 z m 27.49976,-0.34169 c 4.07874,-8.57249 -5.65601,-7.92066 0,0 z m 7.25786,-1.19787 c 3.46673,-6.55587 -3.34287,-1.33788 0,0 z m -30.21407,-0.77196 c 2.43635,-4.35546 -12.39991,-14.06242 -5.59652,-4.509 1.69548,1.37088 3.10061,4.89732 5.59652,4.509 z m 55.12753,-0.23431 c 9.66828,-7.80682 -5.34536,0.14819 0,0 z m -88.01994,-0.0865 c -2.37587,-4.51037 -16.49521,-9.75494 -6.52216,-2.32029 1.99039,0.63677 4.4009,2.93759 6.52216,2.32029 z m 70.98323,-0.82286 c 4.14539,-6.80533 -3.86386,0.64132 0,0 z m 7.06693,-0.32432 c 3.42612,-4.5084 -3.55396,1.48088 0,0 z m 63.49177,0.10396 c 9.57757,3.09953 3.24548,-14.0482 -3.21595,-6.10206 -4.10935,3.02238 10.2882,1.14713 1.4534,4.97545 -1.79543,0.74006 1.14275,2.23197 1.76255,1.12661 z m -114.73334,-0.23568 c -1.24656,-3.04963 -8.28621,-13.15998 -10.6688,-11.98449 5.15073,3.13055 4.66183,10.44598 10.6688,11.98449 z m 48.50633,-0.31352 c 5.45323,-4.90521 -1.2973,-4.80338 -0.51101,0.28307 l 0.51101,-0.28307 z m -96.26021,-0.16243 c 0.88429,-4.76734 -22.40183,-8.2185 -9.13319,-2.60656 3.08541,0.53144 6.19306,2.21841 9.13319,2.60656 z m 65.1566,-0.16011 c 1.38109,-5.36437 -4.43093,-12.96488 -3.31488,-3.87785 0.97869,0.82533 1.17656,5.3529 3.31488,3.87785 z m 6.65169,-0.43716 c 0.25299,-3.96861 -2.49988,0.5544 0,0 z m 48.30038,-1.68036 c 5.33433,-5.09859 20.5898,-9.53941 15.87481,-18.11364 2.90823,-3.28195 12.94759,-13.70732 2.87501,-6.10343 -2.23149,-0.38717 15.79657,-13.97881 5.44773,-6.96556 -5.87884,1.32398 6.37122,-5.38897 -1.13136,-7.39374 -2.6499,-5.70434 -9.38093,-4.87966 -8.90967,1.05473 12.0632,-4.30562 -9.76142,9.44097 -6.22354,14.94794 1.11101,4.11497 -7.66462,14.13143 -11.19263,13.47319 6.05253,-9.03948 -10.27993,5.79332 -1.85559,5.16618 0.57905,2.54373 1.81616,6.06499 5.11524,3.93433 z m 7.32797,-15.80007 c 1.02371,-3.8274 12.64196,-14.59683 13.03911,-13.51632 -3.03936,1.49054 -11.96085,12.30245 -3.54594,5.86778 -3.01262,2.54065 -5.78956,6.20944 -9.49317,7.64854 z m -96.70873,14.76432 c 1.73349,-3.37686 -8.75006,-6.70155 -2.6599,-1.02604 0.68235,-0.0159 1.94257,2.62981 2.6599,1.02604 z m 57.39531,-0.53355 c 4.09036,-4.53623 1.95641,-10.55164 -0.79449,-2.55008 -0.73788,-0.006 -0.86753,4.34412 0.79449,2.55008 z m 16.6475,-0.16701 c 6.5179,-5.22119 -0.0712,-4.51523 -1.02568,0.28216 l 0.37075,0.12643 0.65493,-0.40859 z m -37.83916,-0.15522 c -2.4726,-4.13418 3.47466,-13.42914 -1.86673,-13.84306 -1.52089,3.19908 -4.58041,-12.72836 -8.01118,-14.413 2.01361,9.57655 6.72668,18.65063 9.06871,28.21177 l 0.40464,0.24039 0.40453,-0.1961 3e-5,0 z m 29.52297,-0.59476 c 3.71384,-2.39893 4.34283,-11.47698 0.27562,-3.91404 -0.49913,0.47581 -3.19741,5.26082 -0.27562,3.91404 z m -38.27163,-2.63778 c -1.48118,-8.71198 -5.8248,-3.58451 0,0 z m -69.54684,-0.70834 c 3.32846,-1.81767 6.87293,0.0593 0.87379,-3.26745 -0.78049,-1.29864 -3.87226,6.02931 -0.87379,3.26745 z m 60.14596,-0.52756 c -0.6963,-6.68098 -7.60106,-16.65321 -14.29703,-18.55218 -2.70258,-7.06396 -5.96133,-15.37779 -12.51098,-20.55333 -2.06343,2.56408 3.34677,6.78266 -2.45391,1.49532 -7.10969,-4.81636 3.10673,8.80158 5.2916,10.8597 2.77778,3.3946 10.26943,11.88664 2.51028,4.31295 -9.0701,-8.55839 2.64268,6.50864 5.31377,8.77408 1.50955,4.07828 8.55196,14.06632 9.11321,7.63028 2.44216,1.51225 3.58859,6.86474 7.03306,6.03318 z m -22.98428,-30.3817 c -4.20502,-5.0182 0.0833,-1.3064 0,0 l 0,0 z m -2.16247,30.2314 c -0.58662,-4.63931 -10.99047,-5.83642 -5.92251,-9.45621 -5.44997,-2.76141 -12.82569,-15.94748 -17.98911,-10.35453 4.56342,5.25978 15.30087,8.44122 13.14473,13.29466 3.45461,2.00657 6.9278,6.0896 10.76689,6.51608 z m -13.08617,-0.45716 c -3.69152,-4.24323 -12.78911,-5.55392 -2.98875,-0.73777 0.76185,-0.003 2.16324,1.80347 2.98875,0.73777 z m 62.93347,0.005 c 1.96119,-4.65695 -3.0602,-13.49272 -2.00432,-3.57348 0.27406,0.99602 -0.20859,4.48499 2.00432,3.57348 z m 28.12204,-0.59534 c 2.29524,-4.18272 -3.01354,1.03899 0,0 z m -105.59333,-0.51825 c -1.10791,-4.97852 -11.70457,-3.90298 -2.77428,-0.38405 0.81759,0.16726 1.90863,0.98186 2.77428,0.38405 z m 56.21082,-1.66513 c -0.67606,-4.3477 -3.40808,-0.65241 0,0 z m 40.24972,-1.61121 c 3.64586,-6.16293 -2.59629,-6.97228 -2.25416,0.16048 0.43753,0.87471 2.21311,1.24122 2.25416,-0.16048 z m 23.89396,-1.1015 c 6.93565,-5.6704 2.55165,-7.59329 0,0 z m -117.66264,-0.44667 c -4.79121,-5.04572 -5.39014,-0.0875 0,0 z m 34.65051,-0.90987 c -6.42578,-6.5156 -9.92907,-15.64504 -18.22755,-20.21095 -10.39028,-7.1797 9.94381,8.96915 4.40798,8.94784 4.14853,4.3205 9.89321,9.23856 13.99336,11.68656 l -0.17376,-0.42334 -3e-5,-1.1e-4 z m 72.36199,0.48469 c 3.29472,-2.07869 14.10041,-19.29885 6.05155,-9.55254 -0.927,2.01358 -8.44564,9.65916 -6.05155,9.55254 z m -9.14891,-0.49689 c 4.0939,-4.88958 2.16147,-10.48262 -0.77852,-1.57122 -1.10335,0.33872 0.0612,2.77359 0.77852,1.57122 z m -87.21172,-0.37367 c -2.64764,-4.74054 -12.84116,-6.2161 -3.1324,-1.14108 0.97899,0.0112 2.02067,1.83382 3.1324,1.14108 z m 68.03226,-1.05641 c 1.00364,-5.46309 -2.10303,-0.78196 0,3e-5 l 0,-3e-5 z m 24.52551,-1.18693 c 4.47641,-6.56197 -1.66393,-2.76692 -0.90772,1.00078 l 0.90772,-1.00078 z m 37.45377,0.0416 c 5.13952,-2.1502 12.10869,-10.82004 2.94705,-3.9726 -0.71587,0.50591 -7.15061,5.03635 -2.94705,3.9726 z m -86.2708,-0.7995 c 1.3019,-3.36911 -2.12425,-11.32755 2.80127,-5.25585 4.16696,-7.26797 -4.74846,-18.18672 -7.05348,-26.34289 -5.74847,-0.95008 -6.72746,-16.3717 -1.82815,-5.31807 2.32524,-7.76434 -6.3925,-7.99909 -5.55204,-1.57458 3.02518,9.18039 7.62518,18.03181 8.93695,27.33046 -1.91894,3.51325 -1.51679,9.32235 2.69545,11.16093 z m 29.15354,-2.31016 c 0.67726,-5.39351 2.95587,3.85974 3.05712,-3.85724 -1.24203,-3.64547 0.55032,-16.24711 -1.9107,-5.69745 -1.72046,3.4944 3.62819,-22.05674 -3.20325,-12.46086 -1.90204,7.37859 -1.80954,17.51645 2.05678,22.01598 l 5e-5,-4.3e-4 z m -87.50375,-0.58333 c -0.53611,0.11649 -0.82743,1.71403 0,0 z m 120.60013,-1.70454 c 4.63073,-2.14199 12.56055,-10.43131 10.69058,-14.52969 -3.16088,3.24445 -11.47231,12.92977 -10.69058,14.52969 z m -52.4936,-0.58106 c 0.66142,-5.58476 -5.80633,-8.30711 0,0 z m 41.91611,-1.26758 c 3.24216,-3.72179 10.96208,-9.63271 8.74415,-14.93938 -1.72456,4.19793 -10.72338,13.10298 -8.74415,14.93938 z m -106.31931,0.0161 c -0.67587,-3.24998 -2.77537,1.5736 0,0 z m 101.13689,-0.35916 c 3.85258,-2.93075 9.68375,-22.01056 3.08436,-10.5405 -0.82917,2.67868 -4.7174,9.01148 -3.08436,10.5405 z m 24.64828,-1.15694 c 5.01224,-3.67195 5.84842,-10.03212 0.3361,-2.38909 -1.2228,0.72505 -3.04106,4.44646 -0.3361,2.38909 z m -111.87868,0.10542 c -2.34163,-4.23301 -11.07427,-8.32941 -3.48653,-1.9932 1.00884,0.20376 2.24956,2.79632 3.48653,1.9932 z m 29.64169,-1.59947 c 0.1102,-3.9582 -12.49531,-20.27073 -6.81601,-8.83579 2.27307,2.34098 3.49403,8.48384 6.81601,8.83579 z m 6.06815,-0.86539 c 0.57787,-5.18249 -9.14458,-14.83102 -3.18878,-4.11528 0.99846,0.72053 1.42537,5.14383 3.18878,4.11528 z m 25.15151,-0.85237 c 2.1096,-4.48394 -2.44373,-16.64438 -1.64078,-5.11935 0.52778,0.99411 -0.67963,6.22827 1.64078,5.11935 z m 32.41542,-0.95936 c 2.91069,-2.9452 5.53474,-14.10334 0.87018,-4.8518 -0.17224,0.99987 -3.53279,5.34722 -0.87018,4.8518 z m -9.56732,-0.4584 c 2.77016,-7.62826 8.21976,-10.02447 9.55168,-19.10448 -4.34863,-1.84676 5.00247,-18.37507 -2.64345,-9.2359 -5.79472,6.9964 -6.95622,18.66893 -9.14743,27.6391 0.40467,0.77491 1.45911,1.14087 2.2392,0.70128 z m 7.13537,-18.41405 c 0.37238,-1.35355 0.25954,1.1308 0,0 z m -15.29222,15.10582 c 2.75791,-4.24253 0.17875,-18.22398 -0.8084,-5.68124 0.38634,0.62973 -1.24613,7.74951 0.8084,5.68124 z m -9.90435,-3.22946 c -0.96205,-7.17362 -0.88018,6.35652 0,0 z m -15.56439,1.51703 c 1.04905,-3.87491 -3.74886,-12.77462 -1.84566,-3.87577 0.59106,0.52021 0.12621,4.40905 1.84566,3.87577 z m 58.09663,-1.43351 c 7.59707,-9.77169 -3.04221,-0.60921 0,0 z m -89.11432,-1.22249 c -0.92428,-4.44079 -9.30351,-11.72221 -3.29346,-3.16217 0.89759,0.76098 1.87938,3.80206 3.29346,3.16217 z m 5.06886,-3.35783 c 0.72757,-4.02538 -11.37086,-18.82676 -7.03964,-8.68451 2.03275,2.64789 4.08257,7.71817 7.03964,8.68451 z m 80.24728,-1.2575 c 0.79226,-2.39284 11.12827,-13.81953 5.21236,-10.01979 -1.16878,1.12425 -8.44013,10.73632 -5.21236,10.01979 z m -73.10101,-0.5583 c 0.4739,-4.66274 -10.86371,-21.6507 -5.26617,-8.62006 1.63209,2.10037 2.76841,8.56944 5.26617,8.62006 z m -3.74859,-0.37722 c -0.39489,-4.88644 -9.30104,-16.81459 -3.72364,-5.16195 1.1734,1.0914 1.64384,5.69406 3.72364,5.16195 z m 22.83939,-0.65712 c 0.85004,-5.34589 -3.98455,-13.7406 -1.71523,-3.5497 0.72443,0.77213 -0.29478,4.5397 1.71523,3.5497 z m 71.42996,-0.22357 c 2.30532,-6.35265 -7.008,-2.50115 0,0 z m -45.39706,-1.64009 c 1.22775,-5.33008 9.20362,-20.55379 -1.00314,-19.73089 -0.70422,4.93909 -5.66698,17.04963 0.0474,20.08938 l 0.95574,-0.35855 0,6e-5 z m -8.90003,-0.48179 c -0.0301,-6.13538 1.22541,-16.41524 -1.80176,-19.97574 -3.96183,-0.56114 -0.34945,7.69006 -1.57946,11.20883 0.32347,3.41559 -1.41545,8.48148 3.38122,8.76691 z m -11.22071,-1.75201 c 3.22245,-3.50795 -0.62519,-18.56692 -2.31351,-9.63615 1.00366,2.27528 -0.69669,9.6532 2.31351,9.63615 z m -10.06636,-0.89172 c 0.4271,-4.41179 -3.62518,-10.35748 -1.54747,-2.4541 0.0158,0.02 1.22689,5.57695 1.54747,2.4541 z m 24.3097,0.74399 c -0.093,-2.20923 -1.91203,0.99293 0,0 z m -16.38572,-0.76552 c 0.72037,-5.30695 -3.20033,-14.53048 -1.60367,-3.54407 0.61536,0.22661 -0.2565,4.86674 1.60367,3.54407 z m 41.79237,-1.50474 c 2.9292,-3.65526 2.84001,-10.62585 0.0633,-2.45529 0.27263,-0.32001 -1.56958,3.58011 -0.0633,2.45529 z m -24.17068,-3.25559 c 0.96306,-4.25824 4.0941,-17.46388 -2.71152,-10.43828 3.63799,2.76416 0.75595,9.10095 2.71152,10.43828 z m 12.09824,-2.84169 c 2.35921,-4.25328 2.83556,-11.29739 -0.13471,-3.79458 0.53412,0.0103 -1.87021,4.97423 0.13471,3.79458 z m 20.0389,-0.56636 c -1.37933,-2.95685 -4.76679,0.28502 0,0 z m -56.64952,-0.62511 c 1.05736,-5.59278 -3.58043,-10.39144 -1.19632,-1.41272 -0.0948,0.21674 0.46785,2.358 1.19632,1.41272 z m -11.04725,-1.1343 c -2.48986,-3.26915 4.23133,-3.95486 -1.79142,-2.62215 0.34903,0.47755 0.84481,3.74799 1.79142,2.62215 z m 21.89459,-3.01074 c 4.05453,-7.74902 -5.82644,-3.39221 0,0 z"
       id="path5142"
       inkscape:connector-curvature="0" />
  </g>
</svg>
